<svg width="338" height="58" viewBox="0 0 338 58" fill="none" xmlns="http://www.w3.org/2000/svg">
<path d="M114.01 47.6683C110.389 47.6683 107.343 46.8714 104.871 45.2775C102.399 43.6489 100.659 41.4486 99.649 38.6766L105.811 35.0903C107.238 38.7979 110.041 40.6517 114.219 40.6517C116.238 40.6517 117.717 40.2878 118.657 39.5602C119.597 38.8325 120.067 37.9143 120.067 36.8055C120.067 35.5234 119.493 34.5359 118.344 33.8429C117.195 33.1153 115.141 32.3356 112.182 31.504C110.546 31.0189 109.153 30.5338 108.004 30.0487C106.89 29.5636 105.759 28.9226 104.61 28.1256C103.496 27.294 102.643 26.2545 102.051 25.0071C101.459 23.7597 101.163 22.3044 101.163 20.6412C101.163 17.3494 102.33 14.7333 104.662 12.7929C107.03 10.8179 109.867 9.83034 113.174 9.83034C116.133 9.83034 118.727 10.558 120.955 12.0133C123.218 13.434 124.976 15.4263 126.229 17.9905L120.172 21.4728C118.71 18.3543 116.377 16.795 113.174 16.795C111.677 16.795 110.494 17.1415 109.623 17.8345C108.788 18.4929 108.37 19.3591 108.37 20.4333C108.37 21.5768 108.84 22.5123 109.78 23.24C110.755 23.933 112.6 24.6953 115.315 25.5269C116.429 25.8734 117.265 26.1506 117.822 26.3585C118.414 26.5317 119.197 26.8263 120.172 27.2421C121.181 27.6232 121.947 27.987 122.469 28.3335C123.026 28.68 123.653 29.1478 124.349 29.7369C125.046 30.3259 125.568 30.9323 125.916 31.556C126.299 32.1797 126.612 32.942 126.856 33.8429C127.134 34.7092 127.274 35.6621 127.274 36.7016C127.274 40.0626 126.038 42.7307 123.566 44.7057C121.129 46.6808 117.944 47.6683 114.01 47.6683Z" fill="white"/>
<path d="M148.893 20.9531H155.63V46.9407H148.893V44.0301C147.257 46.4556 144.664 47.6683 141.113 47.6683C138.258 47.6683 135.891 46.7155 134.011 44.8097C132.165 42.9039 131.243 40.2705 131.243 36.9095V20.9531H137.979V36.0779C137.979 37.8104 138.449 39.1444 139.389 40.0799C140.329 40.9809 141.583 41.4313 143.149 41.4313C144.89 41.4313 146.282 40.8942 147.327 39.8201C148.371 38.7459 148.893 37.1347 148.893 34.9864V20.9531Z" fill="white"/>
<path d="M176.996 20.2254C180.512 20.2254 183.506 21.5594 185.978 24.2275C188.484 26.8609 189.738 30.1007 189.738 33.9469C189.738 37.793 188.484 41.0502 185.978 43.7182C183.506 46.3516 180.512 47.6683 176.996 47.6683C173.34 47.6683 170.521 46.4036 168.536 43.8741V57.3357H161.8V20.9531H168.536V24.0196C170.521 21.4901 173.34 20.2254 176.996 20.2254ZM170.573 39.2483C171.93 40.5997 173.654 41.2754 175.743 41.2754C177.831 41.2754 179.555 40.5997 180.912 39.2483C182.305 37.8623 183.001 36.0952 183.001 33.9469C183.001 31.7986 182.305 30.0487 180.912 28.6974C179.555 27.3114 177.831 26.6184 175.743 26.6184C173.654 26.6184 171.93 27.3114 170.573 28.6974C169.215 30.0487 168.536 31.7986 168.536 33.9469C168.536 36.0952 169.215 37.8623 170.573 39.2483Z" fill="white"/>
<path d="M200.181 36.7016C201.086 39.9587 203.54 41.5872 207.544 41.5872C210.12 41.5872 212.069 40.721 213.392 38.9885L218.823 42.107C216.247 45.8146 212.452 47.6683 207.439 47.6683C203.122 47.6683 199.658 46.369 197.047 43.7702C194.436 41.1714 193.131 37.897 193.131 33.9469C193.131 30.0314 194.419 26.7743 196.995 24.1755C199.571 21.5421 202.879 20.2254 206.917 20.2254C210.747 20.2254 213.897 21.5421 216.369 24.1755C218.876 26.8089 220.129 30.066 220.129 33.9469C220.129 34.8131 220.042 35.7314 219.868 36.7016H200.181ZM200.076 31.504H213.392C213.009 29.7369 212.209 28.4202 210.99 27.5539C209.807 26.6877 208.449 26.2545 206.917 26.2545C205.107 26.2545 203.61 26.7223 202.426 27.6579C201.242 28.5588 200.459 29.8408 200.076 31.504Z" fill="white"/>
<path d="M231.568 25.4229C232.195 23.7597 233.222 22.5123 234.649 21.6807C236.111 20.8491 237.73 20.4333 239.506 20.4333V27.9177C237.452 27.6752 235.606 28.091 233.97 29.1651C232.369 30.2393 231.568 32.0238 231.568 34.5186V46.9407H224.832V20.9531H231.568V25.4229Z" fill="white"/>
<path d="M243.445 46.9407V8.99874H250.182V46.9407H243.445Z" fill="white"/>
<path d="M276.191 20.9531H282.928V46.9407H276.191V43.8741C274.172 46.4036 271.335 47.6683 267.679 47.6683C264.198 47.6683 261.204 46.3516 258.697 43.7182C256.226 41.0502 254.99 37.793 254.99 33.9469C254.99 30.1007 256.226 26.8609 258.697 24.2275C261.204 21.5594 264.198 20.2254 267.679 20.2254C271.335 20.2254 274.172 21.4901 276.191 24.0196V20.9531ZM263.763 39.2483C265.121 40.5997 266.844 41.2754 268.933 41.2754C271.021 41.2754 272.745 40.5997 274.102 39.2483C275.495 37.8623 276.191 36.0952 276.191 33.9469C276.191 31.7986 275.495 30.0487 274.102 28.6974C272.745 27.3114 271.021 26.6184 268.933 26.6184C266.844 26.6184 265.121 27.3114 263.763 28.6974C262.405 30.0487 261.726 31.7986 261.726 33.9469C261.726 36.0952 262.405 37.8623 263.763 39.2483Z" fill="white"/>
<path d="M297.235 40.6517H308.828V46.9407H288.201V42.4708L299.219 27.2421H288.723V20.9531H308.306V25.4229L297.235 40.6517Z" fill="white"/>
<path d="M330.794 20.9531H338L328.496 46.9407C327.138 50.6829 325.328 53.3856 323.065 55.0488C320.837 56.7467 318.052 57.509 314.71 57.3357V51.0987C316.52 51.1334 317.947 50.7522 318.992 49.9552C320.071 49.1583 320.924 47.8762 321.551 46.1091L310.845 20.9531H318.208L324.997 38.4167L330.794 20.9531Z" fill="white"/>
<path fill-rule="evenodd" clip-rule="evenodd" d="M73.0814 50.4391C73.837 47.5432 74.2391 44.5047 74.2391 41.3722C74.2391 21.5924 58.2045 5.5578 38.4247 5.5578C18.645 5.5578 2.61035 21.5924 2.61035 41.3722C2.61035 44.5047 3.01251 47.5432 3.76802 50.4391H73.0814Z" fill="white"/>
<path fill-rule="evenodd" clip-rule="evenodd" d="M51.2203 7.5728C59.7241 10.857 66.6712 17.3208 70.6359 25.5244C74.5196 23.104 77.1042 18.7944 77.1042 13.8812C77.1042 6.30985 70.9664 0.172028 63.395 0.172028C58.0984 0.172028 53.5033 3.1758 51.2203 7.5728ZM26.0395 7.42272C23.7306 3.1076 19.1801 0.172049 13.9439 0.172049C6.37256 0.172049 0.234741 6.30987 0.234741 13.8813C0.234741 18.6405 2.65993 22.8334 6.34193 25.2914C10.3871 17.0721 17.4368 10.6272 26.0395 7.42272Z" fill="#785CF5"/>
<ellipse cx="21.8185" cy="33.0674" rx="12.5469" ry="9.19857" transform="rotate(-60 21.8185 33.0674)" fill="#785DF5"/>
<ellipse opacity="0.34" cx="23.9536" cy="29.5743" rx="4.83634" ry="3.81647" transform="rotate(-60 23.9536 29.5743)" fill="#D9D9D9"/>
<path d="M45.2793 44.5311C45.2793 47.0303 42.8598 47.9221 40.0536 49.1598C39.0082 49.6209 37.8157 49.6791 36.7533 49.2587C33.8377 48.1048 31.5701 47.0419 31.5701 44.5311C31.5701 41.5566 34.639 39.1454 38.4247 39.1454C42.2104 39.1454 45.2793 41.5566 45.2793 44.5311Z" fill="#785DF5"/>
<ellipse cx="12.5469" cy="9.19857" rx="12.5469" ry="9.19857" transform="matrix(0.5 0.866025 0.866025 -0.5 39.8936 26.8008)" fill="#785DF5"/>
<ellipse opacity="0.3" cx="4.83634" cy="3.81647" rx="4.83634" ry="3.81647" transform="matrix(0.5 0.866025 0.866025 -0.5 48.5863 27.2942)" fill="#D9D9D9"/>
</svg>
