<svg width="304" height="69" viewBox="0 0 304 69" fill="none" xmlns="http://www.w3.org/2000/svg">
<path d="M102.007 47.086C98.7428 47.086 95.9964 46.3641 93.768 44.9203C91.5395 43.4451 89.9702 41.452 89.0599 38.9411L94.6154 35.6926C95.9023 39.0509 98.4289 40.7301 102.195 40.7301C104.016 40.7301 105.35 40.4006 106.197 39.7415C107.045 39.0823 107.468 38.2506 107.468 37.2462C107.468 36.0849 106.95 35.1904 105.915 34.5626C104.879 33.9035 103.027 33.1973 100.359 32.444C98.884 32.0046 97.6285 31.5652 96.5928 31.1258C95.5884 30.6864 94.5683 30.1057 93.5326 29.3838C92.5282 28.6305 91.7592 27.6889 91.2256 26.559C90.692 25.4291 90.4253 24.1108 90.4253 22.6043C90.4253 19.6225 91.4767 17.2528 93.5796 15.4952C95.7139 13.7061 98.272 12.8116 101.254 12.8116C103.922 12.8116 106.26 13.4707 108.269 14.789C110.309 16.0758 111.894 17.8806 113.024 20.2032L107.562 23.3576C106.244 20.5327 104.141 19.1203 101.254 19.1203C99.9041 19.1203 98.8369 19.4342 98.0523 20.0619C97.299 20.6583 96.9223 21.443 96.9223 22.4159C96.9223 23.4517 97.3461 24.2992 98.1935 24.9583C99.0723 25.586 100.736 26.2765 103.184 27.0298C104.188 27.3437 104.942 27.5948 105.444 27.7831C105.977 27.94 106.684 28.2068 107.562 28.5835C108.473 28.9287 109.163 29.2583 109.634 29.5721C110.136 29.886 110.701 30.3097 111.329 30.8433C111.957 31.3769 112.427 31.9261 112.741 32.4911C113.087 33.0561 113.369 33.7466 113.589 34.5626C113.84 35.3473 113.965 36.2104 113.965 37.152C113.965 40.1966 112.851 42.6134 110.623 44.4024C108.426 46.1914 105.554 47.086 102.007 47.086Z" fill="white"/>
<path d="M133.457 22.8867H139.53V46.4268H133.457V43.7904C131.982 45.9874 129.643 47.086 126.442 47.086C123.868 47.086 121.734 46.2228 120.039 44.4966C118.376 42.7703 117.544 40.3849 117.544 37.3404V22.8867H123.617V36.5871C123.617 38.1564 124.041 39.3648 124.888 40.2123C125.736 41.0283 126.866 41.4363 128.278 41.4363C129.847 41.4363 131.103 40.9499 132.045 39.9769C132.986 39.0039 133.457 37.5444 133.457 35.5984V22.8867Z" fill="white"/>
<path d="M158.793 22.2276C161.963 22.2276 164.662 23.436 166.891 25.8528C169.151 28.2382 170.281 31.1729 170.281 34.6568C170.281 38.1407 169.151 41.0911 166.891 43.5079C164.662 45.8933 161.963 47.086 158.793 47.086C155.497 47.086 152.955 45.9404 151.166 43.6491V55.8429H145.093V22.8867H151.166V25.6645C152.955 23.3732 155.497 22.2276 158.793 22.2276ZM153.002 39.459C154.226 40.6831 155.78 41.2951 157.663 41.2951C159.546 41.2951 161.1 40.6831 162.324 39.459C163.58 38.2035 164.207 36.6028 164.207 34.6568C164.207 32.7108 163.58 31.1258 162.324 29.9017C161.1 28.6462 159.546 28.0185 157.663 28.0185C155.78 28.0185 154.226 28.6462 153.002 29.9017C151.778 31.1258 151.166 32.7108 151.166 34.6568C151.166 36.6028 151.778 38.2035 153.002 39.459Z" fill="white"/>
<path d="M179.696 37.152C180.512 40.1024 182.724 41.5776 186.334 41.5776C188.656 41.5776 190.414 40.7929 191.607 39.2236L196.503 42.0484C194.181 45.4068 190.759 47.086 186.24 47.086C182.348 47.086 179.225 45.909 176.871 43.555C174.517 41.2009 173.34 38.2349 173.34 34.6568C173.34 31.1101 174.501 28.1597 176.824 25.8057C179.146 23.4203 182.128 22.2276 185.769 22.2276C189.221 22.2276 192.062 23.4203 194.29 25.8057C196.55 28.1911 197.68 31.1415 197.68 34.6568C197.68 35.4415 197.602 36.2732 197.445 37.152H179.696ZM179.601 32.444H191.607C191.262 30.8433 190.54 29.6506 189.441 28.8659C188.374 28.0813 187.15 27.6889 185.769 27.6889C184.137 27.6889 182.787 28.1126 181.72 28.9601C180.653 29.7761 179.947 30.9375 179.601 32.444Z" fill="white"/>
<path d="M207.993 26.9356C208.558 25.4291 209.484 24.2992 210.771 23.5459C212.089 22.7926 213.549 22.4159 215.15 22.4159V29.1955C213.298 28.9758 211.634 29.3524 210.159 30.3254C208.715 31.2984 207.993 32.9148 207.993 35.1747V46.4268H201.92V22.8867H207.993V26.9356Z" fill="white"/>
<path d="M218.702 46.4268V12.0583H224.775V46.4268H218.702Z" fill="white"/>
<path d="M248.224 22.8867H254.297V46.4268H248.224V43.6491C246.404 45.9404 243.846 47.086 240.55 47.086C237.411 47.086 234.712 45.8933 232.452 43.5079C230.224 41.0911 229.11 38.1407 229.11 34.6568C229.11 31.1729 230.224 28.2382 232.452 25.8528C234.712 23.436 237.411 22.2276 240.55 22.2276C243.846 22.2276 246.404 23.3732 248.224 25.6645V22.8867ZM237.019 39.459C238.243 40.6831 239.797 41.2951 241.68 41.2951C243.563 41.2951 245.117 40.6831 246.341 39.459C247.596 38.2035 248.224 36.6028 248.224 34.6568C248.224 32.7108 247.596 31.1258 246.341 29.9017C245.117 28.6462 243.563 28.0185 241.68 28.0185C239.797 28.0185 238.243 28.6462 237.019 29.9017C235.795 31.1258 235.183 32.7108 235.183 34.6568C235.183 36.6028 235.795 38.2035 237.019 39.459Z" fill="white"/>
<path d="M267.196 40.7301H277.648V46.4268H259.051V42.378L268.985 28.5835H259.522V22.8867H277.177V26.9356L267.196 40.7301Z" fill="white"/>
<path d="M297.452 22.8867H303.949L295.38 46.4268C294.156 49.8166 292.524 52.2648 290.484 53.7714C288.475 55.3093 285.964 55.9998 282.951 55.8429V50.1933C284.583 50.2247 285.87 49.8794 286.811 49.1575C287.784 48.4356 288.553 47.2743 289.118 45.6736L279.467 22.8867H286.105L292.226 38.7057L297.452 22.8867Z" fill="white"/>
<path d="M0.855748 20.4306L61.7292 0.0656038C62.9729 -0.350458 63.8847 1.31184 62.9293 2.25353L20.4275 44.1473C19.9282 44.6394 19.1461 44.6035 18.6887 44.0675L0.316981 22.5388C-0.281266 21.8378 0.00566444 20.715 0.855748 20.4306Z" fill="#695DF5"/>
<path d="M68.1445 48.5694L7.27102 68.9344C6.02736 69.3505 5.1156 67.6882 6.07096 66.7465L48.5727 24.8528C49.072 24.3606 49.8541 24.3965 50.3116 24.9325L68.6833 46.4612C69.2815 47.1622 68.9946 48.285 68.1445 48.5694Z" fill="#695DF5"/>
</svg>
