<svg width="260" height="62" viewBox="0 0 260 62" fill="none" xmlns="http://www.w3.org/2000/svg">
<path d="M86.0054 41.1085H101.354V47.9764H78.8253V11.5555H101.094V18.4234H86.0054V26.1759H99.7934V32.9398H86.0054V41.1085Z" fill="white"/>
<path d="M125.316 21.9614H132.028V47.9764H125.316V44.9066C123.304 47.4388 120.477 48.7048 116.835 48.7048C113.366 48.7048 110.383 47.3867 107.886 44.7506C105.423 42.0797 104.192 38.8191 104.192 34.9689C104.192 31.1187 105.423 27.8755 107.886 25.2393C110.383 22.5685 113.366 21.233 116.835 21.233C120.477 21.233 123.304 22.4991 125.316 25.0312V21.9614ZM112.933 40.276C114.285 41.6288 116.002 42.3051 118.084 42.3051C120.165 42.3051 121.882 41.6288 123.234 40.276C124.622 38.8885 125.316 37.1195 125.316 34.9689C125.316 32.8184 124.622 31.0667 123.234 29.7139C121.882 28.3264 120.165 27.6327 118.084 27.6327C116.002 27.6327 114.285 28.3264 112.933 29.7139C111.58 31.0667 110.903 32.8184 110.903 34.9689C110.903 37.1195 111.58 38.8885 112.933 40.276Z" fill="white"/>
<path d="M144.102 29.3497C144.102 30.0434 144.553 30.6158 145.455 31.0667C146.391 31.4829 147.519 31.8645 148.837 32.2113C150.155 32.5235 151.473 32.9398 152.791 33.4601C154.109 33.9457 155.219 34.7782 156.121 35.9575C157.058 37.1368 157.526 38.611 157.526 40.38C157.526 43.0509 156.52 45.1148 154.508 46.5716C152.531 47.9937 150.051 48.7048 147.068 48.7048C141.726 48.7048 138.084 46.641 136.142 42.5133L141.969 39.2354C142.732 41.49 144.432 42.6173 147.068 42.6173C149.461 42.6173 150.658 41.8716 150.658 40.38C150.658 39.6863 150.19 39.1313 149.253 38.7151C148.351 38.2642 147.241 37.8653 145.923 37.5184C144.605 37.1715 143.287 36.7379 141.969 36.2176C140.651 35.6973 139.523 34.8822 138.587 33.7722C137.685 32.6276 137.234 31.2054 137.234 29.5058C137.234 26.939 138.171 24.9272 140.044 23.4703C141.952 21.9788 144.31 21.233 147.12 21.233C149.236 21.233 151.161 21.7186 152.895 22.6899C154.63 23.6264 156 24.9792 157.006 26.7482L151.282 29.87C150.45 28.101 149.062 27.2165 147.12 27.2165C146.253 27.2165 145.524 27.4072 144.935 27.7888C144.38 28.1704 144.102 28.6907 144.102 29.3497Z" fill="white"/>
<path d="M177.737 21.9614H184.917L175.448 47.9764C174.095 51.7226 172.291 54.4281 170.037 56.0931C167.817 57.7927 165.042 58.5558 161.712 58.3824V52.1388C163.516 52.1735 164.938 51.7919 165.978 50.9941C167.054 50.1964 167.903 48.9129 168.528 47.1439L157.862 21.9614H165.198L171.962 39.4435L177.737 21.9614Z" fill="white"/>
<path d="M191.819 18.8397C190.674 18.8397 189.686 18.4408 188.853 17.643C188.055 16.8105 187.656 15.8393 187.656 14.7293C187.656 13.6193 188.055 12.6481 188.853 11.8156C189.686 10.9831 190.674 10.5669 191.819 10.5669C192.929 10.5669 193.883 10.9831 194.68 11.8156C195.513 12.6481 195.929 13.6193 195.929 14.7293C195.929 15.8393 195.513 16.8105 194.68 17.643C193.883 18.4408 192.929 18.8397 191.819 18.8397ZM188.437 48.4967V21.9614H195.149V48.4967C195.149 52.3122 194.212 55.0872 192.339 56.8215C190.501 58.5905 187.656 59.3536 183.806 59.1108V52.6591C185.402 52.7632 186.564 52.4857 187.292 51.8266C188.055 51.1676 188.437 50.0576 188.437 48.4967Z" fill="white"/>
<path d="M223.436 44.7506C220.765 47.3867 217.505 48.7048 213.654 48.7048C209.804 48.7048 206.544 47.3867 203.873 44.7506C201.237 42.0797 199.918 38.8191 199.918 34.9689C199.918 31.1187 201.237 27.8755 203.873 25.2393C206.544 22.5685 209.804 21.233 213.654 21.233C217.505 21.233 220.765 22.5685 223.436 25.2393C226.107 27.8755 227.442 31.1187 227.442 34.9689C227.442 38.8191 226.107 42.0797 223.436 44.7506ZM208.607 40.1199C209.96 41.4727 211.643 42.1491 213.654 42.1491C215.666 42.1491 217.348 41.4727 218.701 40.1199C220.054 38.7671 220.73 37.0501 220.73 34.9689C220.73 32.8877 220.054 31.1707 218.701 29.818C217.348 28.4652 215.666 27.7888 213.654 27.7888C211.643 27.7888 209.96 28.4652 208.607 29.818C207.289 31.1707 206.63 32.8877 206.63 34.9689C206.63 37.0501 207.289 38.7671 208.607 40.1199Z" fill="white"/>
<path d="M247.305 21.233C250.808 21.233 253.791 22.5685 256.254 25.2393C258.751 27.8755 260 31.1187 260 34.9689C260 38.8191 258.751 42.0797 256.254 44.7506C253.791 47.3867 250.808 48.7048 247.305 48.7048C243.663 48.7048 240.853 47.4388 238.876 44.9066V47.9764H232.164V11.5555H238.876V25.0312C240.853 22.4991 243.663 21.233 247.305 21.233ZM240.905 40.276C242.258 41.6288 243.975 42.3051 246.056 42.3051C248.137 42.3051 249.854 41.6288 251.207 40.276C252.594 38.8885 253.288 37.1195 253.288 34.9689C253.288 32.8184 252.594 31.0667 251.207 29.7139C249.854 28.3264 248.137 27.6327 246.056 27.6327C243.975 27.6327 242.258 28.3264 240.905 29.7139C239.552 31.0667 238.876 32.8184 238.876 34.9689C238.876 37.1195 239.552 38.8885 240.905 40.276Z" fill="white"/>
<path fill-rule="evenodd" clip-rule="evenodd" d="M19.3304 0.317901C35.1234 2.0968 48.8707 5.89486 56.8277 10.6777L58.4062 11.6266L58.3357 29.7325L58.2653 47.8384L54.0153 48.8753C51.6779 49.4455 48.2848 50.2713 46.4751 50.7108C33.3327 53.9011 0.869186 61.8374 0.479837 61.9552C0.0263276 62.0922 6.89798e-06 61.0915 6.89798e-06 43.6172V30.3867C6.89798e-06 26.9564 0.980196 23.5975 2.82515 20.7056L4.3662 18.2901C6.76728 14.5259 10.3753 8.87063 12.3838 5.72246C15.2373 1.24969 16.1558 0.00675251 16.586 0.0348883C16.889 0.0547489 18.1239 0.182187 19.3304 0.317901ZM39.7575 19.731C32.7451 21.4813 22.1339 24.1277 16.1772 25.612L5.3467 28.3108L5.27212 33.7714C5.21317 38.099 5.2702 39.2041 5.54631 39.0979C5.73824 39.0239 11.0156 37.6883 17.2739 36.1293C23.5323 34.5705 34.1434 31.9166 40.8542 30.232L53.0557 27.1691L53.1302 21.8592C53.1884 17.7078 53.1286 16.5492 52.856 16.5492C52.6641 16.5492 46.7699 17.9811 39.7575 19.731ZM41.7015 35.601C35.5805 37.1283 25.0815 39.7411 18.3707 41.4075C11.6599 43.0736 5.95348 44.501 5.68944 44.5796C5.2543 44.709 5.20961 45.2091 5.20961 49.9445C5.20961 52.8168 5.31106 55.167 5.43526 55.167C5.5592 55.167 10.032 54.0953 15.3746 52.7856C20.7172 51.4762 26.5073 50.0606 28.2415 49.6399C44.4818 45.702 52.0562 43.8189 52.5758 43.5897C53.1845 43.3213 53.1928 43.2476 53.1928 38.0706C53.1928 35.185 53.1113 32.8238 53.0118 32.8238C52.9123 32.8238 47.8228 34.0734 41.7015 35.601Z" fill="#785DF5"/>
</svg>
